<svg xmlns="http://www.w3.org/2000/svg"  viewBox="0 0 24 24" width="96px" height="96px"><path d="M 7 3 C 4.803 3 3 4.803 3 7 L 3 17 C 3 19.197 4.803 21 7 21 L 17 21 C 19.197 21 21 19.197 21 17 L 21 7 C 21 4.803 19.197 3 17 3 L 7 3 z M 7 5 L 17 5 C 18.117 5 19 5.883 19 7 L 19 17 C 19 18.117 18.117 19 17 19 L 7 19 C 5.883 19 5 18.117 5 17 L 5 7 C 5 5.883 5.883 5 7 5 z M 8.6679688 6 C 8.2989688 6 8 6.448 8 7 L 8 17 C 8 17.552 8.2989688 18 8.6679688 18 L 9.3339844 18 C 9.7019844 18 10 17.552 10 17 L 10 14.599609 L 11.484375 12.71875 L 15.005859 18 L 16.513672 18 L 17.005859 17 L 12.929688 10.888672 L 16 7 L 15.488281 6 L 14 6 L 10 10.828125 L 10 7 C 10 6.448 9.7010312 6 9.3320312 6 L 8.6679688 6 z"/></svg>